<svg id="Camada_1" data-name="Camada 1" xmlns="http://www.w3.org/2000/svg" viewBox="0 0 1080 1080"><defs><style>.cls-1{fill:#b78f53;}.cls-2{fill:#051d2d;}</style></defs><path class="cls-1" d="M680.91,148,420.64,756.26a77.48,77.48,0,0,1-70.81,46.37H307.21a77.48,77.48,0,0,1-70.81-46.37L93,432.22H196.79L325.22,721.93h7.2L577.69,148Z"/><path class="cls-2" d="M794.39,478a77.92,77.92,0,0,0-70.81-45.78H681A77.92,77.92,0,0,0,610.15,478L466.71,802.63H569.94l39.61-89.14h0l30-67.45h0l58.82-133.11h7.81l53.17,121.58h0l42.72,97.32h0l107.6,226.31h103.82Z"/></svg>