<svg id="Camada_1" data-name="Camada 1" xmlns="http://www.w3.org/2000/svg" viewBox="0 0 689 240"><defs><style>.cls-1{fill:#b78f53;}.cls-2{fill:#051d2d;}</style></defs><path class="cls-1" d="M335.72,34,285,152.64a15.13,15.13,0,0,1-13.82,9.05h-8.31A15.12,15.12,0,0,1,249,152.64l-28-63.2h20.25l25,56.51h1.41L315.59,34Z"/><polygon class="cls-2" points="482.17 89.44 482.17 161.69 463.79 161.69 413.92 113.99 412.05 113.99 412.05 161.69 393.55 161.69 393.55 89.44 412.05 89.44 461.8 137.02 463.79 137.02 463.79 89.44 482.17 89.44"/><path class="cls-2" d="M658.77,102.62h-56.3v16.51h52v13.18h-52l-.13,16.87H660.5v13.3l-61.6-.12A15.66,15.66,0,0,1,583,146.92v-42.4c0-8.55,7-15.08,15.74-15.08h60Z"/><path class="cls-2" d="M423.64,174.29a6.82,6.82,0,0,0-3.42-.83H411.8v21.8h3.05V186.8h5.37a6.92,6.92,0,0,0,3.42-.82,5.74,5.74,0,0,0,2.29-2.34,7.26,7.26,0,0,0,.81-3.5,7.36,7.36,0,0,0-.81-3.51,5.8,5.8,0,0,0-2.29-2.34m-.43,7.82a3.05,3.05,0,0,1-1.16,1.32,3.2,3.2,0,0,1-1.73.46h-5.47v-7.52h5.47a3.12,3.12,0,0,1,1.73.47,3.05,3.05,0,0,1,1.16,1.32,5,5,0,0,1,0,4"/><path class="cls-2" d="M448.59,185.26a5.52,5.52,0,0,0,2.22-2.22,7.31,7.31,0,0,0,0-6.61,5.47,5.47,0,0,0-2.21-2.21,6.78,6.78,0,0,0-3.31-.78h-8.62v21.82h3.05V186h4.54l4.63,9.22h3.62l-5-9.56a6.64,6.64,0,0,0,1.1-.44m-8.87-8.91h5.69A2.72,2.72,0,0,1,448,178a4.47,4.47,0,0,1,0,3.56,2.81,2.81,0,0,1-1,1.19,2.85,2.85,0,0,1-1.54.42h-5.69Z"/><polygon class="cls-2" points="464.21 173.46 462.74 173.46 462.74 195.26 464.21 195.26 465.78 195.26 476.69 195.26 476.69 192.35 465.78 192.35 465.78 185.89 475.05 185.89 475.05 182.98 465.78 182.98 465.78 176.37 476.69 176.37 476.69 173.46 465.78 173.46 464.21 173.46"/><path class="cls-2" d="M490.37,178.67a4.31,4.31,0,0,1,1.55-1.81,4.22,4.22,0,0,1,2.33-.64,4.15,4.15,0,0,1,1.85.43,4.67,4.67,0,0,1,1.57,1.24,4.72,4.72,0,0,1,.94,1.82h3.13a8.51,8.51,0,0,0-1.43-3.4,7.35,7.35,0,0,0-2.62-2.28,7.51,7.51,0,0,0-3.44-.8,7.67,7.67,0,0,0-4,1,6.94,6.94,0,0,0-2.66,2.86,9.36,9.36,0,0,0-.94,4.27v6a9.4,9.4,0,0,0,.94,4.28,6.85,6.85,0,0,0,2.66,2.85,7.67,7.67,0,0,0,4,1,7.43,7.43,0,0,0,3.42-.8,7.27,7.27,0,0,0,2.63-2.27,8.49,8.49,0,0,0,1.44-3.41h-3.13a4.67,4.67,0,0,1-.94,1.89,4.48,4.48,0,0,1-1.56,1.2,4.42,4.42,0,0,1-1.86.41,4.31,4.31,0,0,1-2.33-.64,4.25,4.25,0,0,1-1.55-1.81,6.23,6.23,0,0,1-.55-2.7v-6a6.17,6.17,0,0,1,.55-2.7"/><path class="cls-2" d="M517.21,173.46l-8,21.8h3.29l1.63-4.79h8.77l1.64,4.79h3.28l-8-21.8Zm-2.09,14.1,3.39-9.89,3.39,9.89Z"/><polygon class="cls-2" points="533.63 176.37 539.78 176.37 539.78 195.26 542.82 195.26 542.82 176.37 548.96 176.37 548.96 173.46 533.63 173.46 533.63 176.37"/><path class="cls-2" d="M568.66,174.23a8.52,8.52,0,0,0-8,0,6.82,6.82,0,0,0-2.68,2.82,9,9,0,0,0-1,4.22v6.18a9.05,9.05,0,0,0,1,4.22,6.85,6.85,0,0,0,2.68,2.81,8.52,8.52,0,0,0,8,0,6.73,6.73,0,0,0,2.68-2.81,8.93,8.93,0,0,0,.95-4.22v-6.18a8.9,8.9,0,0,0-.95-4.22,6.7,6.7,0,0,0-2.68-2.82m.51,13.32a5.77,5.77,0,0,1-.56,2.59,4.05,4.05,0,0,1-1.58,1.72,4.91,4.91,0,0,1-4.74,0,4.05,4.05,0,0,1-1.58-1.72,5.64,5.64,0,0,1-.56-2.59v-6.39a5.57,5.57,0,0,1,.56-2.58,4.08,4.08,0,0,1,1.58-1.73,4.91,4.91,0,0,1,4.74,0,4.08,4.08,0,0,1,1.58,1.73,5.7,5.7,0,0,1,.56,2.58Z"/><polygon class="cls-2" points="569.35 168.57 567.38 166.51 563.25 170.19 564.94 171.96 569.35 168.57"/><path class="cls-2" d="M595,185.26a5.52,5.52,0,0,0,2.22-2.22,7.31,7.31,0,0,0,0-6.61,5.47,5.47,0,0,0-2.21-2.21,6.78,6.78,0,0,0-3.31-.78H583v21.82h3.05V186h4.54l4.63,9.22h3.62l-5-9.56a6.64,6.64,0,0,0,1.1-.44m-8.87-8.91h5.69a2.72,2.72,0,0,1,2.58,1.61,4.47,4.47,0,0,1,0,3.56,2.81,2.81,0,0,1-1,1.19,2.85,2.85,0,0,1-1.54.42h-5.69Z"/><rect class="cls-2" x="609.11" y="173.46" width="3.05" height="21.8"/><path class="cls-2" d="M634.84,174.23a8.52,8.52,0,0,0-8,0,6.76,6.76,0,0,0-2.68,2.82,9,9,0,0,0-.95,4.22v6.18a9.05,9.05,0,0,0,.95,4.22,6.79,6.79,0,0,0,2.68,2.81,8.52,8.52,0,0,0,8,0,6.73,6.73,0,0,0,2.68-2.81,9.05,9.05,0,0,0,1-4.22v-6.18a9,9,0,0,0-1-4.22,6.7,6.7,0,0,0-2.68-2.82m.51,13.32a5.77,5.77,0,0,1-.56,2.59,4.07,4.07,0,0,1-1.59,1.72,4.89,4.89,0,0,1-4.73,0,4.05,4.05,0,0,1-1.58-1.72,5.64,5.64,0,0,1-.57-2.59v-6.39a5.57,5.57,0,0,1,.57-2.58,4.08,4.08,0,0,1,1.58-1.73,4.89,4.89,0,0,1,4.73,0,4.1,4.1,0,0,1,1.59,1.73,5.7,5.7,0,0,1,.56,2.58Z"/><path class="cls-2" d="M662.54,185.76a5.09,5.09,0,0,0-2.21-1.79,18,18,0,0,0-3.29-1l-.17,0-.16,0-.12,0-.11,0a26.27,26.27,0,0,1-2.64-.63,3.89,3.89,0,0,1-1.58-1,2.42,2.42,0,0,1-.63-1.77h0a3,3,0,0,1,1.23-2.53,5.84,5.84,0,0,1,3.46-.89,6.92,6.92,0,0,1,2.47.46,9.84,9.84,0,0,1,2.47,1.37l1.74-2.43a13.38,13.38,0,0,0-2.16-1.27,11.7,11.7,0,0,0-2.23-.75,10.31,10.31,0,0,0-2.29-.26,10.46,10.46,0,0,0-4.17.75,5.73,5.73,0,0,0-2.64,2.18,6.39,6.39,0,0,0-.9,3.46h0a5.67,5.67,0,0,0,1,3.56,5,5,0,0,0,2.34,1.73,23.59,23.59,0,0,0,3.55.85l.22,0,.1,0h.09a17.53,17.53,0,0,1,2.42.59,3.59,3.59,0,0,1,1.52,1,2.66,2.66,0,0,1,.59,1.81v0a2.83,2.83,0,0,1-1.3,2.48,6.54,6.54,0,0,1-3.66.87,9.5,9.5,0,0,1-3.24-.54,8.44,8.44,0,0,1-2.73-1.62l-1.9,2.34a11.22,11.22,0,0,0,2.28,1.5,11.1,11.1,0,0,0,2.62.9,14.1,14.1,0,0,0,3,.3,11.32,11.32,0,0,0,4.31-.74,5.89,5.89,0,0,0,2.73-2.16,6.09,6.09,0,0,0,.94-3.41v0a5.7,5.7,0,0,0-.89-3.38"/><path class="cls-2" d="M357.86,98.36a15.2,15.2,0,0,0-13.81-8.92h-8.31a15.21,15.21,0,0,0-13.82,8.92l-28,63.33h20.14l7.73-17.39h0l5.85-13.16,11.47-26h1.52L351,128.89l8.33,19L382,195.26h20.25Z"/><path class="cls-1" d="M99.12,98.76a15.19,15.19,0,0,0-13.81-8.93H77a15.19,15.19,0,0,0-13.81,8.93l-28,63.32H55.34l6.35-14.29h-.06l7.58-17h.06l11.12-25.17h1.53l11.35,26h-.06L99,144.7h0l7.84,17.38H127.1Z"/><path class="cls-2" d="M515.92,104.52h61V89.44h-61c-22.13,0-25.43,11.86-25.43,18.94v35.16c0,7.07,3.3,18.94,25.43,18.94h61V147.4h-61c-6.28,0-6.28-2.45-6.28-3.76V108.28c0-1.31,0-3.76,6.28-3.76"/><path class="cls-1" d="M223.07,125.39c0,31.13-14.86,36.3-40.24,36.3H134.69V89.44h48.14c25.38,0,40.24,4.69,40.24,36m-24.6-22.91h-43.8a1.94,1.94,0,0,0-1.92,2v42.15a1.92,1.92,0,0,0,1.9,1.94h43.4a6,6,0,0,0,5.93-6.07V108.12a5.57,5.57,0,0,0-5.51-5.64"/></svg>